<svg xmlns="http://www.w3.org/2000/svg" viewBox="0 0 1111.06 1118.95"><defs><style>.cls-1{font-size:450.52px;font-family:Lato, Lato; fill:#FFFFFF;}.cls-2{fill:#f7931e;stroke:#f7931e;stroke-miterlimit:10;stroke-width:3px;}</style></defs><g id="Layer_1" data-name="Layer 1"><text class="cls-1" transform="translate(278.6 690.81) scale(1.03 1)">ex</text><polygon class="cls-2" points="650.31 266.03 549.83 4.28 454.27 266.03 650.31 266.03"/><polygon class="cls-2" points="408.26 277.98 153.22 194.43 274.93 416.96 408.26 277.98"/><polygon class="cls-2" points="252.55 473.46 4.22 577.99 253.7 663.05 252.55 473.46"/><polygon class="cls-2" points="452.77 873.21 560.41 1114.96 648.8 874.6 452.77 873.21"/><polygon class="cls-2" points="695.75 279.37 950.78 195.83 829.08 418.36 695.75 279.37"/><polygon class="cls-2" points="406.1 856.45 151.07 939.99 272.78 717.46 406.1 856.45"/><polygon class="cls-2" points="695.75 856.14 950.78 939.69 829.08 717.15 695.75 856.14"/><polygon class="cls-2" points="864.02 475.18 1106.89 587.61 859.09 664.7 864.02 475.18"/></g></svg>