<svg id="Layer_1" data-name="Layer 1" xmlns="http://www.w3.org/2000/svg" viewBox="0 0 1023.82 512"><defs><style>.cls-1{font-size:174.27px;fill:#fff;font-family:CenturyGothic, Century Gothic;}.cls-2{fill:#f7931e;stroke:#f7931e;stroke-miterlimit:10;stroke-width:3px;}</style></defs><rect width="1023.82" height="512"/><text class="cls-1" transform="translate(225.22 306.57) scale(1.05 1)">exsurgo</text><polygon class="cls-2" points="371.83 142.25 332.2 41 294.51 142.25 371.83 142.25"/><polygon class="cls-2" points="276.36 146.87 175.77 114.56 223.78 200.64 276.36 146.87"/><polygon class="cls-2" points="214.95 222.49 117 262.92 215.4 295.83 214.95 222.49"/><polygon class="cls-2" points="293.92 377.12 336.38 470.64 371.24 377.66 293.92 377.12"/><polygon class="cls-2" points="389.75 147.41 490.35 115.1 442.34 201.18 389.75 147.41"/><polygon class="cls-2" points="275.51 370.64 174.92 402.96 222.93 316.88 275.51 370.64"/><polygon class="cls-2" points="389.75 370.52 490.35 402.84 442.34 316.76 389.75 370.52"/></svg>